<svg width="140" height="31" viewBox="0 0 140 31" fill="none" xmlns="http://www.w3.org/2000/svg">
<g clip-path="url(#clip0_1_137)">
<path d="M75.5182 5.90458H79.3834V30.64H75.5182V5.90458ZM51.1408 27.3502C48.3903 27.3502 46.2501 25.7014 45.4564 23.316L60.3618 19.4355C59.7248 13.4451 55.3526 10.3231 50.8529 10.3231C49.499 10.3176 48.1601 10.6075 46.9284 11.1729C45.6967 11.7382 44.6016 12.5654 43.7187 13.5976C42.1339 15.4577 41.2765 17.92 41.2765 20.6257C41.2765 26.9953 45.7354 30.9308 51.2134 30.9308C54.8863 30.9308 57.7362 29.2654 59.2636 27.0683L56.531 24.77C55.4175 26.4175 53.2352 27.3502 51.1408 27.3502ZM50.8313 13.9217C53.2722 13.9217 55.0175 15.2361 55.9004 17.1949L45.1201 19.9992C45.1838 16.5697 47.4119 13.9217 50.8313 13.9217ZM30.9001 10.3256C25.7469 10.3256 22.4919 13.6334 22.4919 18.6169V30.64H26.3584V18.6169C26.3584 15.6332 27.8081 14.0126 30.8975 14.0126C33.9869 14.0126 35.4163 15.6294 35.4163 18.6169V30.64H39.2828V18.6169C39.284 13.6334 36.0532 10.3256 30.9001 10.3256ZM10.2809 30.9359C8.25394 30.9362 6.27242 30.3321 4.58689 29.1999C2.90135 28.0677 1.5875 26.4584 0.81147 24.5754C0.0354355 22.6924 -0.167935 20.6203 0.227074 18.621C0.622082 16.6218 1.59773 14.7852 3.03065 13.3436C4.46358 11.9019 6.28943 10.9199 8.27733 10.5217C10.2652 10.1235 12.3259 10.3269 14.1988 11.1064C16.0717 11.8858 17.6728 13.2062 18.7995 14.9006C19.9262 16.595 20.5279 18.5874 20.5287 20.6257C20.527 23.3587 19.447 25.9794 17.5256 27.9125C15.6043 29.8455 12.9987 30.9329 10.2809 30.9359ZM10.2809 14.0255C6.76986 14.0255 3.91108 16.9899 3.91108 20.6346C3.91108 24.2794 6.76731 27.2425 10.2809 27.2425C13.7945 27.2425 16.6507 24.2781 16.6507 20.6346C16.6507 16.9912 13.7945 14.0255 10.2809 14.0255ZM91.5982 30.9359C89.5712 30.9362 87.5897 30.3321 85.9042 29.1999C84.2186 28.0677 82.9048 26.4584 82.1287 24.5754C81.3527 22.6924 81.1493 20.6203 81.5443 18.621C81.9393 16.6218 82.915 14.7852 84.3479 13.3436C85.7808 11.9019 87.6067 10.9199 89.5946 10.5217C91.5825 10.1235 93.6432 10.3269 95.5161 11.1064C97.389 11.8858 98.99 13.2062 100.117 14.9006C101.243 16.595 101.845 18.5874 101.846 20.6257C101.844 23.3586 100.764 25.9791 98.8425 27.9121C96.9213 29.845 94.3159 30.9326 91.5982 30.9359ZM91.5982 14.0255C88.0871 14.0255 85.2283 16.9899 85.2283 20.6346C85.2283 24.2794 88.0858 27.2425 91.5982 27.2425C95.1105 27.2425 97.968 24.2781 97.968 20.6346C97.968 16.9912 95.1118 14.0255 91.5982 14.0255ZM66.2845 14.7121V13.677C66.2845 11.9514 66.3482 11.1801 67.0667 10.3256C67.7852 9.47116 69.049 9.08683 70.7051 9.08683C71.5179 9.07113 72.3298 9.14719 73.1257 9.31358V5.8149C72.1567 5.61496 71.1694 5.51834 70.1803 5.52666C67.6884 5.52666 65.9188 6.13646 64.6614 7.17287C62.9607 8.57439 62.4333 10.4012 62.4333 13.3785V30.64H66.2985V18.1147L71.6338 16.7145V13.3106L66.2845 14.7121ZM129.441 18.3261V22.6511C129.441 25.6335 127.998 27.2541 124.952 27.2554C123.433 27.2554 122.297 26.8159 121.573 26.046C120.715 25.1339 120.497 24.2025 120.492 22.678V10.6331H116.627V22.6575C116.627 24.3614 116.272 25.3311 115.525 26.078C114.777 26.8249 113.661 27.2605 112.138 27.2618C109.128 27.2618 107.679 25.6309 107.679 22.6575V10.6331H103.812V23.1072C103.812 25.4042 104.449 27.2451 105.896 28.6735C107.552 30.3005 109.739 30.9488 112.166 30.9488C114.842 30.9488 117.118 29.9405 118.559 28.293C119.994 29.9341 122.265 30.9488 124.981 30.9488C127.529 30.9488 129.723 30.1801 131.162 28.735C132.629 27.2643 133.307 25.6117 133.307 22.8958V18.3261H129.441ZM129.44 2.84916H133.307V6.73729H129.44V2.84916ZM129.44 10.6241H133.307V14.511H129.44V10.6241ZM125.575 6.73729H129.441V10.6241H125.575V6.73729ZM133.307 6.73729H137.173V10.6241H133.307V6.73729ZM136.133 0H140V3.88813H136.133V0Z" fill="black"/>
</g>
<defs>
<clipPath id="clip0_1_137">
<rect width="140" height="31" fill="white"/>
</clipPath>
</defs>
</svg>
